<svg width="412" height="107" viewBox="0 0 412 107" fill="none" xmlns="http://www.w3.org/2000/svg">
<g filter="url(#filter0_d_11_96)">
<rect x="11" y="12" width="390" height="84" fill="white"/>
<rect x="10.7" y="11.7" width="390.6" height="84.6" stroke="#EEEEF0" stroke-width="0.6"/>
</g>
<circle cx="79.5" cy="38.5" r="12.45" stroke="#BFBFBF" stroke-width="2.1"/>
<path d="M84.375 37.8505C84.875 38.1392 84.875 38.8608 84.375 39.1495L77.625 43.0466C77.125 43.3353 76.5 42.9745 76.5 42.3971L76.5 34.6029C76.5 34.0255 77.125 33.6647 77.625 33.9534L84.375 37.8505Z" fill="#BFBFBF"/>
<path d="M70.5859 66.9453V67.8438H62.5195V66.9453H65.9961V65.5098H63.4766V62.6191H68.5547V61.5254H63.457V60.6465H69.6289V63.4785H64.5605V64.6211H69.834V65.5098H67.0703V66.9453H70.5859ZM75.7715 60.4414C75.7617 62.7656 74.5557 64.1914 71.748 64.875L71.3574 64.0449C72.6758 63.7422 73.5205 63.2783 74.0234 62.6973L71.5332 62.8828L71.3672 62.0527L74.4678 61.9355C74.541 61.7305 74.5898 61.5156 74.6143 61.291H71.8164V60.4414H75.7715ZM72.7441 65.7441V64.8945H78.5547V67.1895H73.8184V67.9023H78.7891V68.7617H72.7539V66.3984H77.4805V65.7441H72.7441ZM75.791 62.9023V62.0137H77.4707V60.041H78.5547V64.543H77.4707V62.9023H75.791ZM83.7305 60.9297V68H82.4805V60.9297H83.7305ZM84.9219 68V62.6973H86.1719V68H84.9219ZM84.834 61.2617C84.834 60.8906 85.1611 60.5879 85.5566 60.5879C85.9521 60.5879 86.2793 60.8906 86.2793 61.2617C86.2793 61.6377 85.9521 61.9404 85.5566 61.9453C85.1611 61.9404 84.834 61.6377 84.834 61.2617ZM92.0996 62.6973L90.2051 68H88.8379L86.9434 62.6973H88.2715L89.4922 66.6426H89.5508L90.7812 62.6973H92.0996ZM95.0488 68.1074C93.4521 68.1074 92.4707 67.043 92.4707 65.3828C92.4707 63.7422 93.4668 62.6289 94.9805 62.6289C96.2793 62.6289 97.4023 63.4443 97.4023 65.3047V65.6953H93.7012C93.7207 66.5986 94.2529 67.1357 95.0586 67.1309C95.6055 67.1357 95.9717 66.9014 96.1328 66.584H97.3535C97.1289 67.502 96.2793 68.1074 95.0488 68.1074ZM93.7061 64.8457H96.2109C96.2061 64.123 95.7178 63.5957 95 63.5957C94.2529 63.5957 93.75 64.1719 93.7061 64.8457Z" fill="#BFBFBF"/>
<path d="M177.417 47.4H171.33C171.035 47.4 170.787 47.2994 170.587 47.0983C170.387 46.8971 170.287 46.6478 170.287 46.3504C170.287 46.053 170.387 45.8058 170.587 45.6087C170.787 45.4116 171.035 45.313 171.33 45.313H177.417L175.609 43.4696C175.423 43.2609 175.325 43.0174 175.313 42.7391C175.301 42.4609 175.4 42.2174 175.609 42.0087C175.817 41.8 176.061 41.6957 176.339 41.6957C176.617 41.6957 176.861 41.8 177.07 42.0087L180.687 45.6261C180.896 45.8348 181 46.0783 181 46.3565C181 46.6348 180.896 46.8783 180.687 47.087L177.07 50.7043C176.861 50.913 176.617 51.0174 176.339 51.0174C176.061 51.0174 175.817 50.913 175.609 50.7043C175.4 50.4957 175.301 50.2522 175.313 49.9739C175.325 49.6957 175.423 49.4522 175.609 49.2435L177.417 47.4ZM164.13 42.7391C165.322 42.7391 166.397 42.4609 167.355 41.9043C168.312 41.3478 169.081 40.6058 169.661 39.6783C168.872 39.0754 168.012 38.6232 167.079 38.3217C166.147 38.0203 165.161 37.8696 164.123 37.8696C163.084 37.8696 162.101 38.0203 161.174 38.3217C160.246 38.6232 159.388 39.0754 158.6 39.6783C159.18 40.6058 159.948 41.3478 160.906 41.9043C161.864 42.4609 162.939 42.7391 164.13 42.7391ZM164.134 35.7826C164.804 35.7826 165.377 35.5439 165.852 35.0665C166.328 34.5891 166.565 34.0152 166.565 33.3447C166.565 32.6743 166.327 32.1014 165.849 31.6261C165.372 31.1507 164.798 30.913 164.127 30.913C163.457 30.913 162.884 31.1518 162.409 31.6292C161.933 32.1066 161.696 32.6805 161.696 33.3509C161.696 34.0213 161.934 34.5942 162.412 35.0696C162.889 35.5449 163.463 35.7826 164.134 35.7826ZM164.122 52.1304C163.872 52.1304 163.626 52.0899 163.383 52.0087C163.139 51.9275 162.925 51.7942 162.739 51.6087C161.765 50.7275 160.71 49.713 159.574 48.5652C158.438 47.4174 157.383 46.1826 156.409 44.8609C155.435 43.5391 154.623 42.1594 153.974 40.7217C153.325 39.2841 153 37.8464 153 36.4087C153 32.9304 154.119 30.1594 156.357 28.0957C158.594 26.0319 161.186 25 164.13 25C167.075 25 169.667 26.0319 171.904 28.0957C174.142 30.1594 175.261 32.9304 175.261 36.4087C175.261 36.7712 175.245 37.1437 175.215 37.5263C175.184 37.9089 175.106 38.3016 174.983 38.7043H172.791C172.907 38.3101 173 37.9203 173.07 37.5348C173.139 37.1493 173.174 36.7739 173.174 36.4087C173.174 33.6773 172.301 31.4409 170.555 29.6993C168.809 27.9577 166.668 27.087 164.13 27.087C161.593 27.087 159.452 27.9577 157.706 29.6993C155.96 31.4409 155.087 33.6773 155.087 36.4087C155.087 38.1478 155.841 40.1594 157.348 42.4435C158.855 44.7275 161.116 47.2725 164.13 50.0783C164.664 49.6145 165.157 49.1507 165.609 48.687C166.061 48.2232 166.507 47.771 166.948 47.3304L167.189 47.5552L167.71 48.0422C167.898 48.217 168.072 48.3797 168.235 48.5304L168.478 48.7565C167.991 49.2667 167.493 49.771 166.983 50.2696C166.472 50.7681 165.986 51.2145 165.522 51.6087C165.336 51.7942 165.119 51.9275 164.87 52.0087C164.62 52.0899 164.371 52.1304 164.122 52.1304Z" fill="#FF552B"/>
<path d="M156.388 66.9453V67.8438H148.321V66.9453H151.798V65.5098H149.278V62.6191H154.356V61.5254H149.259V60.6465H155.431V63.4785H150.362V64.6211H155.636V65.5098H152.872V66.9453H156.388ZM161.573 60.4414C161.563 62.7656 160.357 64.1914 157.55 64.875L157.159 64.0449C158.478 63.7422 159.322 63.2783 159.825 62.6973L157.335 62.8828L157.169 62.0527L160.27 61.9355C160.343 61.7305 160.392 61.5156 160.416 61.291H157.618V60.4414H161.573ZM158.546 65.7441V64.8945H164.356V67.1895H159.62V67.9023H164.591V68.7617H158.556V66.3984H163.282V65.7441H158.546ZM161.593 62.9023V62.0137H163.272V60.041H164.356V64.543H163.272V62.9023H161.593ZM173.019 60.9004V61.7891H172.169V65.7588C172.569 65.7295 172.965 65.6953 173.341 65.6465L173.39 66.4277C171.568 66.7451 169.518 66.7793 167.989 66.7793L167.862 65.8906C168.194 65.8906 168.551 65.8857 168.927 65.8857V61.7891H168.087V60.9004H173.019ZM169.981 65.8662C170.357 65.8564 170.738 65.8418 171.124 65.8223V61.7891H169.981V65.8662ZM173.81 68.8691V60.041H174.894V63.459H176.251V64.3477H174.894V68.8691H173.81ZM184.015 60.0508V66.5742H182.931V64.6504H180.802V63.7617H182.931V62.668H180.919C180.294 64.0254 178.995 65.041 177.208 65.5879L176.749 64.7383C178.692 64.1133 179.947 62.9951 180.147 61.5938H177.208V60.7246H181.339C181.339 61.0957 181.295 61.4521 181.222 61.7891H182.931V60.0508H184.015ZM178.263 68.6934V65.9297H179.366V67.8145H184.239V68.6934H178.263Z" fill="#FF552B"/>
<path d="M253.917 51.8333C252.108 51.8333 250.418 51.4943 248.847 50.8161C247.275 50.138 245.908 49.2177 244.746 48.0552C243.583 46.8927 242.668 45.5203 242.001 43.938C241.334 42.3557 241 40.6604 241 38.8521C241 37.0437 241.334 35.3592 242.001 33.7984C242.668 32.2377 243.583 30.876 244.746 29.7135C245.908 28.551 247.275 27.6415 248.847 26.9849C250.418 26.3283 252.108 26 253.917 26C255.725 26 257.415 26.3283 258.986 26.9849C260.558 27.6415 261.925 28.551 263.087 29.7135C264.25 30.876 265.165 32.2377 265.832 33.7984C266.5 35.3592 266.833 37.0437 266.833 38.8521C266.833 40.6604 266.5 42.3557 265.832 43.938C265.165 45.5203 264.25 46.8927 263.087 48.0552C261.925 49.2177 260.558 50.138 258.986 50.8161C257.415 51.4943 255.725 51.8333 253.917 51.8333ZM253.917 49.9604C254.67 49.1854 255.3 48.2974 255.806 47.2964C256.312 46.2953 256.726 45.1059 257.049 43.7281H250.817C251.118 45.0198 251.522 46.1823 252.028 47.2156C252.534 48.249 253.163 49.1639 253.917 49.9604ZM251.172 49.5729C250.634 48.7549 250.171 47.8722 249.783 46.925C249.396 45.9778 249.073 44.9122 248.815 43.7281H243.971C244.789 45.2566 245.736 46.4568 246.812 47.3286C247.889 48.2005 249.342 48.9486 251.172 49.5729ZM256.694 49.5406C258.244 49.0455 259.638 48.3028 260.876 47.3125C262.113 46.3222 263.109 45.1274 263.862 43.7281H259.051C258.771 44.8906 258.443 45.9455 258.066 46.8927C257.689 47.8399 257.232 48.7226 256.694 49.5406ZM243.325 41.7906H248.459C248.395 41.2094 248.357 40.6873 248.346 40.2245C248.336 39.7616 248.33 39.3042 248.33 38.8521C248.33 38.3139 248.341 37.8349 248.362 37.4151C248.384 36.9953 248.427 36.5271 248.492 36.0104H243.325C243.174 36.5271 243.072 36.9899 243.018 37.399C242.964 37.808 242.938 38.2924 242.938 38.8521C242.938 39.4118 242.964 39.9123 243.018 40.3536C243.072 40.795 243.174 41.274 243.325 41.7906ZM250.461 41.7906H257.404C257.49 41.1233 257.544 40.5797 257.566 40.1599C257.587 39.7401 257.598 39.3042 257.598 38.8521C257.598 38.4215 257.587 38.0071 257.566 37.6089C257.544 37.2106 257.49 36.6778 257.404 36.0104H250.461C250.375 36.6778 250.322 37.2106 250.3 37.6089C250.278 38.0071 250.268 38.4215 250.268 38.8521C250.268 39.3042 250.278 39.7401 250.3 40.1599C250.322 40.5797 250.375 41.1233 250.461 41.7906ZM259.342 41.7906H264.508C264.659 41.274 264.761 40.795 264.815 40.3536C264.869 39.9123 264.896 39.4118 264.896 38.8521C264.896 38.2924 264.869 37.808 264.815 37.399C264.761 36.9899 264.659 36.5271 264.508 36.0104H259.374C259.439 36.7639 259.482 37.3398 259.503 37.738C259.525 38.1363 259.535 38.5076 259.535 38.8521C259.535 39.3257 259.519 39.7724 259.487 40.1922C259.455 40.612 259.406 41.1448 259.342 41.7906ZM259.019 34.0729H263.862C263.152 32.5875 262.178 31.3497 260.94 30.3594C259.702 29.3691 258.276 28.6694 256.661 28.2604C257.2 29.0569 257.657 29.9181 258.034 30.8438C258.411 31.7694 258.739 32.8458 259.019 34.0729ZM250.817 34.0729H257.081C256.844 32.9319 256.446 31.8286 255.886 30.763C255.327 29.6974 254.67 28.7556 253.917 27.9375C253.228 28.5187 252.647 29.283 252.173 30.2302C251.699 31.1774 251.247 32.4583 250.817 34.0729ZM243.971 34.0729H248.847C249.084 32.9104 249.385 31.8717 249.751 30.9568C250.117 30.0418 250.58 29.1538 251.14 28.2927C249.525 28.7017 248.115 29.3906 246.909 30.3594C245.704 31.3281 244.724 32.566 243.971 34.0729Z" fill="#BFBFBF"/>
<path d="M243.388 66.9453V67.8438H235.321V66.9453H238.798V65.5098H236.278V62.6191H241.356V61.5254H236.259V60.6465H242.431V63.4785H237.362V64.6211H242.636V65.5098H239.872V66.9453H243.388ZM248.573 60.4414C248.563 62.7656 247.357 64.1914 244.55 64.875L244.159 64.0449C245.478 63.7422 246.322 63.2783 246.825 62.6973L244.335 62.8828L244.169 62.0527L247.27 61.9355C247.343 61.7305 247.392 61.5156 247.416 61.291H244.618V60.4414H248.573ZM245.546 65.7441V64.8945H251.356V67.1895H246.62V67.9023H251.591V68.7617H245.556V66.3984H250.282V65.7441H245.546ZM248.593 62.9023V62.0137H250.272V60.041H251.356V64.543H250.272V62.9023H248.593ZM257.392 60.6855C258.188 60.6855 258.847 61.1299 259.242 61.9062H261.308V60.041H262.382V68.8789H261.308V65.5391H259.32C258.935 66.418 258.241 66.9258 257.392 66.9258C256.063 66.9258 255.121 65.7197 255.126 63.8008C255.121 61.8965 256.063 60.6855 257.392 60.6855ZM256.171 63.8008C256.166 65.1582 256.664 65.9443 257.392 65.9492C258.124 65.9443 258.617 65.1582 258.622 63.8008C258.617 62.4531 258.124 61.6621 257.392 61.6621C256.664 61.6621 256.166 62.4531 256.171 63.8008ZM259.55 62.7949C259.613 63.1025 259.647 63.4395 259.647 63.8008C259.647 64.1035 259.623 64.3916 259.574 64.6602H261.308V62.7949H259.55ZM271.171 60.041V65.5879H270.136V63.1855H269.276V65.2949H268.261V60.2168H269.276V62.3066H270.136V60.041H271.171ZM263.573 61.8477V60.998H265.243V60.1191H266.317V60.998H267.968V61.8477H263.573ZM263.886 63.7324C263.876 62.8145 264.677 62.2041 265.78 62.209C266.903 62.2041 267.694 62.8145 267.704 63.7324C267.694 64.6504 266.903 65.2559 265.78 65.2559C264.677 65.2559 263.876 64.6504 263.886 63.7324ZM264.853 63.7324C264.853 64.1865 265.229 64.4746 265.78 64.4746C266.337 64.4746 266.718 64.1865 266.718 63.7324C266.718 63.2783 266.337 62.9902 265.78 62.9902C265.229 62.9902 264.853 63.2783 264.853 63.7324ZM265.165 67.2871C265.16 66.2715 266.303 65.7002 268.192 65.6953C270.077 65.7002 271.215 66.2715 271.22 67.2871C271.215 68.2832 270.077 68.8594 268.192 68.8594C266.303 68.8594 265.16 68.2832 265.165 67.2871ZM266.249 67.2871C266.244 67.7705 266.933 68.0342 268.192 68.0293C269.447 68.0342 270.121 67.7705 270.126 67.2871C270.121 66.7744 269.447 66.5156 268.192 66.5254C266.933 66.5156 266.244 66.7744 266.249 67.2871Z" fill="#BFBFBF"/>
<path d="M320.179 59.9004V65.6816H315.999V59.9004H320.179ZM317.063 64.8125H319.095V60.75H317.063V64.8125ZM321.517 67.8691V59.041H322.601V62.4297H323.958V63.3477H322.601V67.8691H321.517ZM331.673 59.041V67.8789H330.579V59.041H331.673ZM324.612 62.8008C324.607 60.8965 325.579 59.6855 326.917 59.6855C328.24 59.6855 329.217 60.8965 329.222 62.8008C329.217 64.7197 328.24 65.9258 326.917 65.9258C325.579 65.9258 324.607 64.7197 324.612 62.8008ZM325.657 62.8008C325.657 64.1582 326.17 64.9443 326.917 64.9492C327.659 64.9443 328.167 64.1582 328.167 62.8008C328.167 61.4531 327.659 60.6621 326.917 60.6621C326.17 60.6621 325.657 61.4531 325.657 62.8008ZM340.638 59.041V67.8691H339.603V59.041H340.638ZM332.874 64.8906H333.675V60.9648H333.05V60.0859H337.093V60.9648H336.468V64.7734C336.746 64.749 337.01 64.7197 337.259 64.6855L337.327 65.4766C335.936 65.7598 334.119 65.7939 333.001 65.7891L332.874 64.8906ZM334.651 64.8711C334.92 64.8662 335.198 64.8564 335.472 64.8418V60.9648H334.651V64.8711ZM336.868 63.2695V62.3027H337.845V59.2266H338.88V67.4297H337.845V63.2695H336.868ZM348.958 59.041V67.8789H347.864V59.041H348.958ZM341.897 62.8008C341.893 60.8965 342.864 59.6855 344.202 59.6855C345.525 59.6855 346.502 60.8965 346.507 62.8008C346.502 64.7197 345.525 65.9258 344.202 65.9258C342.864 65.9258 341.893 64.7197 341.897 62.8008ZM342.942 62.8008C342.942 64.1582 343.455 64.9443 344.202 64.9492C344.944 64.9443 345.452 64.1582 345.452 62.8008C345.452 61.4531 344.944 60.6621 344.202 60.6621C343.455 60.6621 342.942 61.4531 342.942 62.8008ZM353.587 61.5508C353.587 62.9961 354.437 64.5195 355.862 65.1152L355.267 65.9746C354.222 65.5205 353.46 64.5977 353.055 63.4746C352.649 64.6855 351.873 65.7012 350.843 66.1895L350.218 65.3398C351.609 64.6953 352.479 63.0498 352.483 61.5508V60.8086H350.54V59.9102H355.521V60.8086H353.587V61.5508ZM356.507 67.8691V59.041H357.601V67.8691H356.507Z" fill="#BFBFBF"/>
<path d="M328 48.7149V47.3577C328 42.111 332.253 37.8577 337.5 37.8577C342.747 37.8577 347 42.111 347 47.3577V48.7149" stroke="#BFBFBF" stroke-width="2.03571" stroke-linecap="round" stroke-linejoin="round"/>
<path d="M337.5 37.8571C340.499 37.8571 342.929 35.4266 342.929 32.4286C342.929 29.4305 340.499 27 337.5 27C334.502 27 332.072 29.4305 332.072 32.4286C332.072 35.4266 334.502 37.8571 337.5 37.8571Z" stroke="#BFBFBF" stroke-width="2.03571" stroke-linecap="round" stroke-linejoin="round"/>
<defs>
<filter id="filter0_d_11_96" x="0.400024" y="0.900024" width="411.2" height="105.2" filterUnits="userSpaceOnUse" color-interpolation-filters="sRGB">
<feFlood flood-opacity="0" result="BackgroundImageFix"/>
<feColorMatrix in="SourceAlpha" type="matrix" values="0 0 0 0 0 0 0 0 0 0 0 0 0 0 0 0 0 0 127 0" result="hardAlpha"/>
<feOffset dy="-0.5"/>
<feGaussianBlur stdDeviation="5"/>
<feComposite in2="hardAlpha" operator="out"/>
<feColorMatrix type="matrix" values="0 0 0 0 0 0 0 0 0 0 0 0 0 0 0 0 0 0 0.05 0"/>
<feBlend mode="normal" in2="BackgroundImageFix" result="effect1_dropShadow_11_96"/>
<feBlend mode="normal" in="SourceGraphic" in2="effect1_dropShadow_11_96" result="shape"/>
</filter>
</defs>
</svg>
