<svg width="85" height="23" viewBox="0 0 85 23" fill="none" xmlns="http://www.w3.org/2000/svg">
<g clip-path="url(#clip0_16_142)">
<path d="M0 3.73511H5.82804V18.0138H12.9782V22.5953H0V3.73511Z" fill="#231E1E"/>
<path d="M18.0129 21.9881C16.6207 21.3136 15.5468 20.38 14.7886 19.1848C14.0305 17.9895 13.6527 16.6134 13.6527 15.0566C13.6527 13.4997 14.0305 12.1237 14.7886 10.9284C15.5468 9.73308 16.6207 8.79951 18.0129 8.12497C19.4052 7.45043 21.0241 7.11316 22.8723 7.11316C24.7206 7.11316 26.3395 7.45043 27.7317 8.12497C29.124 8.79951 30.1979 9.73578 30.9561 10.9284C31.7142 12.1237 32.092 13.4997 32.092 15.0566C32.092 16.6134 31.7115 17.9895 30.9561 19.1848C30.1979 20.38 29.124 21.3136 27.7317 21.9881C26.3395 22.6627 24.7206 23 22.8723 23C21.0241 23 19.4025 22.6627 18.0129 21.9881ZM25.5058 17.752C26.1587 17.0964 26.4879 16.2006 26.4879 15.0566C26.4879 13.9125 26.1614 13.0167 25.5058 12.3611C24.8528 11.7054 23.9732 11.379 22.8723 11.379C21.7715 11.379 20.8946 11.7054 20.2389 12.3611C19.586 13.014 19.2568 13.9125 19.2568 15.0566C19.2568 16.2006 19.5833 17.0964 20.2389 17.752C20.8919 18.405 21.7715 18.7342 22.8723 18.7342C23.9732 18.7342 24.8501 18.4077 25.5058 17.752Z" fill="#231E1E"/>
<path d="M35.5835 20.944C33.9835 19.5733 33.1848 17.6225 33.1848 15.0863C33.1848 12.55 33.9889 10.5911 35.5997 9.19885C37.2078 7.8066 39.3852 7.11047 42.1265 7.11047C43.3515 7.11047 44.4982 7.22919 45.5694 7.46933C46.6379 7.70947 47.5256 8.04674 48.2325 8.48114V12.7496C46.9643 11.835 45.2942 11.379 43.2166 11.379C41.8864 11.379 40.8233 11.6866 40.0247 12.299C39.226 12.9115 38.824 13.8424 38.824 15.0863C38.824 16.3301 39.2179 17.2826 40.0085 17.8735C40.7963 18.4644 41.8567 18.7612 43.1869 18.7612C45.1997 18.7612 46.9455 18.2836 48.4214 17.3284V21.5646C46.8429 22.5197 44.7357 22.9973 42.0969 22.9973C39.4581 22.9973 37.1862 22.3119 35.5862 20.9413L35.5835 20.944Z" fill="#231E1E"/>
<path d="M51.5484 21.6456C50.3963 20.7417 49.8188 19.4817 49.8188 17.8601C49.8188 16.2385 50.3747 14.884 51.4863 13.9828C52.598 13.0789 54.1899 12.6283 56.2675 12.6283C57.0769 12.6283 57.8864 12.7174 58.6985 12.8927C59.508 13.0708 60.2041 13.3029 60.7869 13.5943V13.284C60.7869 11.684 59.4783 10.8853 56.8611 10.8853C55.0344 10.8853 53.3615 11.2388 51.8452 11.9457V8.17635C52.5089 7.86606 53.3831 7.60973 54.4624 7.41276C55.5417 7.2158 56.6641 7.11597 57.827 7.11597C60.6088 7.11597 62.7134 7.67179 64.1353 8.78343C65.5572 9.89508 66.2696 11.4465 66.2696 13.4405V22.536H61.1296V21.2598C60.5683 21.7994 59.8614 22.2257 59.0115 22.536C58.1589 22.8463 57.1848 23.0028 56.084 23.0028C54.2142 23.0028 52.7032 22.5522 51.5511 21.6483L51.5484 21.6456ZM59.508 19.2469C60.0692 18.9879 60.4928 18.6506 60.7842 18.2351V16.9265C59.8911 16.3248 58.8739 16.0226 57.7299 16.0226C57.0014 16.0226 56.4428 16.1791 56.0489 16.4894C55.655 16.7997 55.458 17.2584 55.458 17.8601C55.458 18.4213 55.6496 18.8557 56.0354 19.1687C56.4186 19.479 56.9744 19.6355 57.7029 19.6355C58.3477 19.6355 58.9494 19.5059 59.5107 19.2469H59.508Z" fill="#231E1E"/>
<path d="M68.5334 2.65586L74.634 2.63428V22.5953H68.5334V2.65586Z" fill="#231E1E"/>
</g>
<circle cx="81.2225" cy="3.07328" r="3.07328" fill="#FF552B"/>
<defs>
<clipPath id="clip0_16_142">
<rect width="74.6313" height="20.3658" fill="white" transform="translate(0 2.63428)"/>
</clipPath>
</defs>
</svg>
