<svg width="109" height="29" viewBox="0 0 109 29" fill="none" xmlns="http://www.w3.org/2000/svg">
<path d="M48.5996 9.44922V20.043H47.3457V14.6875H46.1738V19.5039H44.9551V9.64844H46.1738V13.6211H47.3457V9.44922H48.5996ZM39.9629 17.4062V10.668H41.2754V16.2578C42.1895 16.2402 43.1855 16.1582 44.2988 15.9414L44.4277 17.0781C42.998 17.3301 41.7852 17.4062 40.666 17.4062H39.9629ZM58.6426 10.3633V11.4297H54.623V13.3164H58.2207V14.3477H54.623V16.5273C56.3574 16.5215 57.6816 16.457 59.2051 16.2109L59.334 17.2656C57.6641 17.5293 56.1758 17.582 54.2246 17.582H53.334V10.3633H58.6426ZM60.2598 20.043V9.44922H61.5723V20.043H60.2598ZM72.2012 9.46094V16.5742H70.959V9.46094H72.2012ZM63.084 15.4023C64.4434 14.8281 65.334 14.1133 65.873 13.2637L63.3301 13.5391L63.1543 12.4727L66.3125 12.3086C66.4062 11.998 66.4707 11.6758 66.5059 11.3359H63.623V10.2812H67.7832C67.7832 11.0547 67.6953 11.7754 67.502 12.4375H68.8027V9.63672H70.0449V15.625H68.8027V13.4922H67.0742C66.4473 14.6641 65.375 15.6191 63.7051 16.3398L63.084 15.4023ZM64.373 18.9766C66.5234 18.6777 67.9062 17.4824 67.9121 16.2344V15.9648H69.1895V16.2344C69.1895 17.4824 70.5781 18.6777 72.7168 18.9766L72.2129 19.9844C70.5312 19.7207 69.2129 18.9473 68.5566 17.875C67.8887 18.9473 66.5762 19.7207 64.9004 19.9844L64.373 18.9766Z" fill="#231E1E"/>
<path d="M82.6191 19.1172C80.7559 19.1172 79.4199 18.0918 79.3848 16.6094H81.166C81.1953 17.2422 81.8105 17.6582 82.6309 17.6641C83.4746 17.6582 84.0781 17.1895 84.0723 16.5039C84.0781 15.8125 83.4629 15.3262 82.4668 15.3203H81.6816V14.0195H82.4668C83.3047 14.0195 83.8906 13.5625 83.8848 12.8945C83.8906 12.2441 83.3926 11.7988 82.6426 11.8047C81.8926 11.7988 81.2773 12.2207 81.248 12.8711H79.5605C79.5898 11.4121 80.9023 10.3984 82.6426 10.3984C84.4121 10.3984 85.5898 11.4473 85.584 12.7891C85.5898 13.7383 84.9277 14.4121 83.9785 14.582V14.6523C85.2266 14.8047 85.9121 15.5605 85.9004 16.6211C85.9121 18.0742 84.5352 19.1172 82.6191 19.1172ZM95.9902 9.41406V20.0781H94.5488V14.6523H93.5762V19.6094H92.1816V9.69531H93.5762V13.457H94.5488V9.41406H95.9902ZM86.6621 16.8555C88.8359 15.5781 89.7734 14.0137 89.9727 11.9219H87.2012V10.7266H91.4316C91.4258 13.7031 90.5352 16.1406 87.5293 17.8867L86.6621 16.8555Z" fill="#FF552B"/>
<path d="M22.9725 15.955L19.92 16.8075L18.6825 15.7625C18.6642 15.7442 18.5267 15.7258 18.27 15.7075L18.16 15.735C18.0317 15.7717 17.9446 15.8542 17.8987 15.9825C17.8529 16.1108 17.8575 16.23 17.9125 16.34L19.205 18.76C19.2417 18.8517 19.3104 18.9204 19.4113 18.9662C19.5121 19.0121 19.6083 19.0167 19.7 18.98L29.49 16.285C29.8017 16.1933 30.0308 16.0467 30.1775 15.845C30.3242 15.6433 30.3517 15.3867 30.26 15.075C30.1683 14.7633 30.0033 14.5479 29.765 14.4288C29.5267 14.3096 29.2627 14.2879 28.9731 14.3637L26.135 15.1025L21.8512 10.9339C21.7554 10.8346 21.6494 10.7667 21.5333 10.73C21.4172 10.6933 21.3011 10.6933 21.185 10.73L21.0547 10.7575C20.8116 10.8125 20.6488 10.95 20.5662 11.17C20.4838 11.39 20.4975 11.6008 20.6075 11.8025L22.9725 15.955ZM13.65 23.6C13.1962 23.6 12.8078 23.4384 12.4847 23.1153C12.1616 22.7922 12 22.4037 12 21.95V18.32C12 18.1333 12.0504 17.972 12.1513 17.8362C12.2521 17.7004 12.385 17.605 12.55 17.55C13.1183 17.3483 13.5629 16.9862 13.8837 16.4637C14.2046 15.9412 14.365 15.3912 14.365 14.8138C14.365 14.2362 14.2046 13.6817 13.8837 13.15C13.5629 12.6183 13.1183 12.2517 12.55 12.05C12.385 11.995 12.2521 11.8996 12.1513 11.7638C12.0504 11.628 12 11.4667 12 11.28V7.65C12 7.19625 12.1616 6.80781 12.4847 6.48469C12.8078 6.16156 13.1962 6 13.65 6H32.35C32.8037 6 33.1922 6.16156 33.5153 6.48469C33.8384 6.80781 34 7.19625 34 7.65V21.95C34 22.4037 33.8384 22.7922 33.5153 23.1153C33.1922 23.4384 32.8037 23.6 32.35 23.6H13.65ZM13.65 21.95H32.35V7.65H13.65V10.6475C14.365 11.1242 14.9379 11.72 15.3688 12.435C15.7996 13.15 16.015 13.9383 16.015 14.8C16.015 15.6617 15.7996 16.45 15.3688 17.165C14.9379 17.88 14.365 18.4758 13.65 18.9525V21.95Z" fill="#231E1E"/>
</svg>
