<svg width="36" height="45" viewBox="0 0 36 45" fill="none" xmlns="http://www.w3.org/2000/svg">
<circle cx="17.5" cy="13.5" r="12.45" stroke="#FF552B" stroke-width="2.1"/>
<path d="M22.375 12.8505C22.875 13.1392 22.875 13.8608 22.375 14.1495L15.625 18.0466C15.125 18.3353 14.5 17.9745 14.5 17.3971L14.5 9.60289C14.5 9.02554 15.125 8.66469 15.625 8.95337L22.375 12.8505Z" fill="#FF552B"/>
<path d="M8.58594 41.9453V42.8438H0.519531V41.9453H3.99609V40.5098H1.47656V37.6191H6.55469V36.5254H1.45703V35.6465H7.62891V38.4785H2.56055V39.6211H7.83398V40.5098H5.07031V41.9453H8.58594ZM13.7715 35.4414C13.7617 37.7656 12.5557 39.1914 9.74805 39.875L9.35742 39.0449C10.6758 38.7422 11.5205 38.2783 12.0234 37.6973L9.5332 37.8828L9.36719 37.0527L12.4678 36.9355C12.541 36.7305 12.5898 36.5156 12.6143 36.291H9.81641V35.4414H13.7715ZM10.7441 40.7441V39.8945H16.5547V42.1895H11.8184V42.9023H16.7891V43.7617H10.7539V41.3984H15.4805V40.7441H10.7441ZM13.791 37.9023V37.0137H15.4707V35.041H16.5547V39.543H15.4707V37.9023H13.791ZM21.7305 35.9297V43H20.4805V35.9297H21.7305ZM22.9219 43V37.6973H24.1719V43H22.9219ZM22.834 36.2617C22.834 35.8906 23.1611 35.5879 23.5566 35.5879C23.9521 35.5879 24.2793 35.8906 24.2793 36.2617C24.2793 36.6377 23.9521 36.9404 23.5566 36.9453C23.1611 36.9404 22.834 36.6377 22.834 36.2617ZM30.0996 37.6973L28.2051 43H26.8379L24.9434 37.6973H26.2715L27.4922 41.6426H27.5508L28.7812 37.6973H30.0996ZM33.0488 43.1074C31.4521 43.1074 30.4707 42.043 30.4707 40.3828C30.4707 38.7422 31.4668 37.6289 32.9805 37.6289C34.2793 37.6289 35.4023 38.4443 35.4023 40.3047V40.6953H31.7012C31.7207 41.5986 32.2529 42.1357 33.0586 42.1309C33.6055 42.1357 33.9717 41.9014 34.1328 41.584H35.3535C35.1289 42.502 34.2793 43.1074 33.0488 43.1074ZM31.7061 39.8457H34.2109C34.2061 39.123 33.7178 38.5957 33 38.5957C32.2529 38.5957 31.75 39.1719 31.7061 39.8457Z" fill="#FF552B"/>
</svg>
