<svg width="37" height="44" viewBox="0 0 37 44" fill="none" xmlns="http://www.w3.org/2000/svg">
<path d="M18.9167 25.8333C17.1083 25.8333 15.4184 25.4943 13.8469 24.8161C12.2753 24.138 10.9083 23.2177 9.74583 22.0552C8.58333 20.8927 7.6684 19.5203 7.00104 17.938C6.33368 16.3557 6 14.6604 6 12.8521C6 11.0437 6.33368 9.3592 7.00104 7.79844C7.6684 6.23767 8.58333 4.87604 9.74583 3.71354C10.9083 2.55104 12.2753 1.64149 13.8469 0.984896C15.4184 0.328299 17.1083 0 18.9167 0C20.725 0 22.4149 0.328299 23.9865 0.984896C25.558 1.64149 26.925 2.55104 28.0875 3.71354C29.25 4.87604 30.1649 6.23767 30.8323 7.79844C31.4997 9.3592 31.8333 11.0437 31.8333 12.8521C31.8333 14.6604 31.4997 16.3557 30.8323 17.938C30.1649 19.5203 29.25 20.8927 28.0875 22.0552C26.925 23.2177 25.558 24.138 23.9865 24.8161C22.4149 25.4943 20.725 25.8333 18.9167 25.8333ZM18.9167 23.9604C19.6701 23.1854 20.2998 22.2974 20.8057 21.2964C21.3116 20.2953 21.726 19.1059 22.049 17.7281H15.8167C16.1181 19.0198 16.5217 20.1823 17.0276 21.2156C17.5335 22.249 18.1632 23.1639 18.9167 23.9604ZM16.1719 23.5729C15.6337 22.7549 15.1708 21.8722 14.7833 20.925C14.3958 19.9778 14.0729 18.9122 13.8146 17.7281H8.97083C9.78889 19.2566 10.7361 20.4568 11.8125 21.3286C12.8889 22.2005 14.342 22.9486 16.1719 23.5729ZM21.6937 23.5406C23.2437 23.0455 24.6377 22.3028 25.8755 21.3125C27.1134 20.3222 28.109 19.1274 28.8625 17.7281H24.051C23.7712 18.8906 23.4429 19.9455 23.0661 20.8927C22.6894 21.8399 22.2319 22.7226 21.6937 23.5406ZM8.325 15.7906H13.4594C13.3948 15.2094 13.3571 14.6873 13.3464 14.2245C13.3356 13.7616 13.3302 13.3042 13.3302 12.8521C13.3302 12.3139 13.341 11.8349 13.3625 11.4151C13.384 10.9953 13.4271 10.5271 13.4917 10.0104H8.325C8.17431 10.5271 8.07205 10.9899 8.01823 11.399C7.96441 11.808 7.9375 12.2924 7.9375 12.8521C7.9375 13.4118 7.96441 13.9123 8.01823 14.3536C8.07205 14.795 8.17431 15.274 8.325 15.7906ZM15.4615 15.7906H22.4042C22.4903 15.1233 22.5441 14.5797 22.5656 14.1599C22.5872 13.7401 22.5979 13.3042 22.5979 12.8521C22.5979 12.4215 22.5872 12.0071 22.5656 11.6089C22.5441 11.2106 22.4903 10.6778 22.4042 10.0104H15.4615C15.3753 10.6778 15.3215 11.2106 15.3 11.6089C15.2785 12.0071 15.2677 12.4215 15.2677 12.8521C15.2677 13.3042 15.2785 13.7401 15.3 14.1599C15.3215 14.5797 15.3753 15.1233 15.4615 15.7906ZM24.3417 15.7906H29.5083C29.659 15.274 29.7613 14.795 29.8151 14.3536C29.8689 13.9123 29.8958 13.4118 29.8958 12.8521C29.8958 12.2924 29.8689 11.808 29.8151 11.399C29.7613 10.9899 29.659 10.5271 29.5083 10.0104H24.374C24.4385 10.7639 24.4816 11.3398 24.5031 11.738C24.5247 12.1363 24.5354 12.5076 24.5354 12.8521C24.5354 13.3257 24.5193 13.7724 24.487 14.1922C24.4547 14.612 24.4062 15.1448 24.3417 15.7906ZM24.0187 8.07292H28.8625C28.1521 6.5875 27.1779 5.34965 25.9401 4.35938C24.7023 3.3691 23.276 2.66944 21.6615 2.26042C22.1997 3.05694 22.6571 3.91806 23.0339 4.84375C23.4106 5.76944 23.7389 6.84583 24.0187 8.07292ZM15.8167 8.07292H22.0812C21.8444 6.93194 21.4462 5.82865 20.8865 4.76302C20.3267 3.6974 19.6701 2.75556 18.9167 1.9375C18.2278 2.51875 17.6465 3.28299 17.1729 4.23021C16.6993 5.17743 16.2472 6.45833 15.8167 8.07292ZM8.97083 8.07292H13.8469C14.0837 6.91042 14.3851 5.8717 14.751 4.95677C15.117 4.04184 15.5799 3.15382 16.1396 2.29271C14.525 2.70174 13.1149 3.39062 11.9094 4.35938C10.7038 5.32812 9.72431 6.56597 8.97083 8.07292Z" fill="#BFBFBF"/>
<path d="M8.3877 40.9453V41.8438H0.321289V40.9453H3.79785V39.5098H1.27832V36.6191H6.35645V35.5254H1.25879V34.6465H7.43066V37.4785H2.3623V38.6211H7.63574V39.5098H4.87207V40.9453H8.3877ZM13.5732 34.4414C13.5635 36.7656 12.3574 38.1914 9.5498 38.875L9.15918 38.0449C10.4775 37.7422 11.3223 37.2783 11.8252 36.6973L9.33496 36.8828L9.16895 36.0527L12.2695 35.9355C12.3428 35.7305 12.3916 35.5156 12.416 35.291H9.61816V34.4414H13.5732ZM10.5459 39.7441V38.8945H16.3564V41.1895H11.6201V41.9023H16.5908V42.7617H10.5557V40.3984H15.2822V39.7441H10.5459ZM13.5928 36.9023V36.0137H15.2725V34.041H16.3564V38.543H15.2725V36.9023H13.5928ZM22.3916 34.6855C23.1875 34.6855 23.8467 35.1299 24.2422 35.9062H26.3076V34.041H27.3818V42.8789H26.3076V39.5391H24.3203C23.9346 40.418 23.2412 40.9258 22.3916 40.9258C21.0635 40.9258 20.1211 39.7197 20.126 37.8008C20.1211 35.8965 21.0635 34.6855 22.3916 34.6855ZM21.1709 37.8008C21.166 39.1582 21.6641 39.9443 22.3916 39.9492C23.124 39.9443 23.6172 39.1582 23.6221 37.8008C23.6172 36.4531 23.124 35.6621 22.3916 35.6621C21.6641 35.6621 21.166 36.4531 21.1709 37.8008ZM24.5498 36.7949C24.6133 37.1025 24.6475 37.4395 24.6475 37.8008C24.6475 38.1035 24.623 38.3916 24.5742 38.6602H26.3076V36.7949H24.5498ZM36.1709 34.041V39.5879H35.1357V37.1855H34.2764V39.2949H33.2607V34.2168H34.2764V36.3066H35.1357V34.041H36.1709ZM28.5732 35.8477V34.998H30.2432V34.1191H31.3174V34.998H32.9678V35.8477H28.5732ZM28.8857 37.7324C28.876 36.8145 29.6768 36.2041 30.7803 36.209C31.9033 36.2041 32.6943 36.8145 32.7041 37.7324C32.6943 38.6504 31.9033 39.2559 30.7803 39.2559C29.6768 39.2559 28.876 38.6504 28.8857 37.7324ZM29.8525 37.7324C29.8525 38.1865 30.2285 38.4746 30.7803 38.4746C31.3369 38.4746 31.7178 38.1865 31.7178 37.7324C31.7178 37.2783 31.3369 36.9902 30.7803 36.9902C30.2285 36.9902 29.8525 37.2783 29.8525 37.7324ZM30.165 41.2871C30.1602 40.2715 31.3027 39.7002 33.1924 39.6953C35.0771 39.7002 36.2148 40.2715 36.2197 41.2871C36.2148 42.2832 35.0771 42.8594 33.1924 42.8594C31.3027 42.8594 30.1602 42.2832 30.165 41.2871ZM31.249 41.2871C31.2441 41.7705 31.9326 42.0342 33.1924 42.0293C34.4473 42.0342 35.1211 41.7705 35.126 41.2871C35.1211 40.7744 34.4473 40.5156 33.1924 40.5254C31.9326 40.5156 31.2441 40.7744 31.249 41.2871Z" fill="#BFBFBF"/>
</svg>
