<svg width="76" height="29" viewBox="0 0 76 29" fill="none" xmlns="http://www.w3.org/2000/svg">
<path d="M48.4453 9.44922V20.043H47.1914V14.6875H46.0195V19.5039H44.8008V9.64844H46.0195V13.6211H47.1914V9.44922H48.4453ZM39.8086 17.4062V10.668H41.1211V16.2578C42.0352 16.2402 43.0312 16.1582 44.1445 15.9414L44.2734 17.0781C42.8438 17.3301 41.6309 17.4062 40.5117 17.4062H39.8086ZM58.4883 10.3633V11.4297H54.4688V13.3164H58.0664V14.3477H54.4688V16.5273C56.2031 16.5215 57.5273 16.457 59.0508 16.2109L59.1797 17.2656C57.5098 17.5293 56.0215 17.582 54.0703 17.582H53.1797V10.3633H58.4883ZM60.1055 20.043V9.44922H61.418V20.043H60.1055ZM72.0469 9.46094V16.5742H70.8047V9.46094H72.0469ZM62.9297 15.4023C64.2891 14.8281 65.1797 14.1133 65.7188 13.2637L63.1758 13.5391L63 12.4727L66.1582 12.3086C66.252 11.998 66.3164 11.6758 66.3516 11.3359H63.4688V10.2812H67.6289C67.6289 11.0547 67.541 11.7754 67.3477 12.4375H68.6484V9.63672H69.8906V15.625H68.6484V13.4922H66.9199C66.293 14.6641 65.2207 15.6191 63.5508 16.3398L62.9297 15.4023ZM64.2188 18.9766C66.3691 18.6777 67.752 17.4824 67.7578 16.2344V15.9648H69.0352V16.2344C69.0352 17.4824 70.4238 18.6777 72.5625 18.9766L72.0586 19.9844C70.377 19.7207 69.0586 18.9473 68.4023 17.875C67.7344 18.9473 66.4219 19.7207 64.7461 19.9844L64.2188 18.9766Z" fill="#231E1E"/>
<path d="M22.9725 15.955L19.92 16.8075L18.6825 15.7625C18.6642 15.7442 18.5267 15.7258 18.27 15.7075L18.16 15.735C18.0317 15.7717 17.9446 15.8542 17.8987 15.9825C17.8529 16.1108 17.8575 16.23 17.9125 16.34L19.205 18.76C19.2417 18.8517 19.3104 18.9204 19.4112 18.9662C19.5121 19.0121 19.6083 19.0167 19.7 18.98L29.49 16.285C29.8017 16.1933 30.0308 16.0467 30.1775 15.845C30.3242 15.6433 30.3517 15.3867 30.26 15.075C30.1683 14.7633 30.0033 14.5479 29.765 14.4287C29.5267 14.3096 29.2627 14.2879 28.9731 14.3637L26.135 15.1025L21.8512 10.9339C21.7554 10.8346 21.6494 10.7667 21.5333 10.73C21.4172 10.6933 21.3011 10.6933 21.185 10.73L21.0547 10.7575C20.8116 10.8125 20.6487 10.95 20.5662 11.17C20.4837 11.39 20.4975 11.6008 20.6075 11.8025L22.9725 15.955ZM13.65 23.6C13.1962 23.6 12.8078 23.4384 12.4847 23.1153C12.1616 22.7922 12 22.4037 12 21.95V18.32C12 18.1333 12.0504 17.972 12.1512 17.8362C12.2521 17.7004 12.385 17.605 12.55 17.55C13.1183 17.3483 13.5629 16.9862 13.8837 16.4637C14.2046 15.9412 14.365 15.3912 14.365 14.8137C14.365 14.2362 14.2046 13.6817 13.8837 13.15C13.5629 12.6183 13.1183 12.2517 12.55 12.05C12.385 11.995 12.2521 11.8996 12.1512 11.7638C12.0504 11.628 12 11.4667 12 11.28V7.65C12 7.19625 12.1616 6.80781 12.4847 6.48469C12.8078 6.16156 13.1962 6 13.65 6H32.35C32.8037 6 33.1922 6.16156 33.5153 6.48469C33.8384 6.80781 34 7.19625 34 7.65V21.95C34 22.4037 33.8384 22.7922 33.5153 23.1153C33.1922 23.4384 32.8037 23.6 32.35 23.6H13.65ZM13.65 21.95H32.35V7.65H13.65V10.6475C14.365 11.1242 14.9379 11.72 15.3687 12.435C15.7996 13.15 16.015 13.9383 16.015 14.8C16.015 15.6617 15.7996 16.45 15.3687 17.165C14.9379 17.88 14.365 18.4758 13.65 18.9525V21.95Z" fill="#231E1E"/>
</svg>
