<svg width="13" height="13" viewBox="0 0 13 13" fill="none" xmlns="http://www.w3.org/2000/svg">
<path fill-rule="evenodd" clip-rule="evenodd" d="M11.2308 12.6965C11.6355 13.1011 12.2915 13.1011 12.6962 12.6965C13.1009 12.2918 13.1009 11.6357 12.6962 11.2311L7.96545 6.5003L12.6962 1.76954C13.1009 1.36488 13.1009 0.708806 12.6962 0.30415C12.2915 -0.100506 11.6355 -0.100506 11.2308 0.30415L6.50006 5.03491L1.76864 0.303492C1.36398 -0.101164 0.707904 -0.101164 0.303248 0.303492C-0.101408 0.708148 -0.101408 1.36422 0.303247 1.76888L5.03467 6.5003L0.303247 11.2317C-0.101408 11.6364 -0.101408 12.2925 0.303248 12.6971C0.707904 13.1018 1.36398 13.1018 1.76864 12.6971L6.50006 7.96569L11.2308 12.6965Z" fill="#231E1E"/>
</svg>
