<svg width="44" height="44" viewBox="0 0 44 44" fill="none" xmlns="http://www.w3.org/2000/svg">
<path d="M5.17871 34.9004V40.6816H0.999023V34.9004H5.17871ZM2.06348 39.8125H4.09473V35.75H2.06348V39.8125ZM6.5166 42.8691V34.041H7.60059V37.4297H8.95801V38.3477H7.60059V42.8691H6.5166ZM16.6729 34.041V42.8789H15.5791V34.041H16.6729ZM9.6123 37.8008C9.60742 35.8965 10.5791 34.6855 11.917 34.6855C13.2402 34.6855 14.2168 35.8965 14.2217 37.8008C14.2168 39.7197 13.2402 40.9258 11.917 40.9258C10.5791 40.9258 9.60742 39.7197 9.6123 37.8008ZM10.6572 37.8008C10.6572 39.1582 11.1699 39.9443 11.917 39.9492C12.6592 39.9443 13.167 39.1582 13.167 37.8008C13.167 36.4531 12.6592 35.6621 11.917 35.6621C11.1699 35.6621 10.6572 36.4531 10.6572 37.8008ZM25.6377 34.041V42.8691H24.6025V34.041H25.6377ZM17.874 39.8906H18.6748V35.9648H18.0498V35.0859H22.0928V35.9648H21.4678V39.7734C21.7461 39.749 22.0098 39.7197 22.2588 39.6855L22.3271 40.4766C20.9355 40.7598 19.1191 40.7939 18.001 40.7891L17.874 39.8906ZM19.6514 39.8711C19.9199 39.8662 20.1982 39.8564 20.4717 39.8418V35.9648H19.6514V39.8711ZM21.8682 38.2695V37.3027H22.8447V34.2266H23.8799V42.4297H22.8447V38.2695H21.8682ZM33.958 34.041V42.8789H32.8643V34.041H33.958ZM26.8975 37.8008C26.8926 35.8965 27.8643 34.6855 29.2021 34.6855C30.5254 34.6855 31.502 35.8965 31.5068 37.8008C31.502 39.7197 30.5254 40.9258 29.2021 40.9258C27.8643 40.9258 26.8926 39.7197 26.8975 37.8008ZM27.9424 37.8008C27.9424 39.1582 28.4551 39.9443 29.2021 39.9492C29.9443 39.9443 30.4521 39.1582 30.4521 37.8008C30.4521 36.4531 29.9443 35.6621 29.2021 35.6621C28.4551 35.6621 27.9424 36.4531 27.9424 37.8008ZM38.5869 36.5508C38.5869 37.9961 39.4365 39.5195 40.8623 40.1152L40.2666 40.9746C39.2217 40.5205 38.46 39.5977 38.0547 38.4746C37.6494 39.6855 36.873 40.7012 35.8428 41.1895L35.2178 40.3398C36.6094 39.6953 37.4785 38.0498 37.4834 36.5508V35.8086H35.54V34.9102H40.5205V35.8086H38.5869V36.5508ZM41.5068 42.8691V34.041H42.6006V42.8691H41.5068Z" fill="#BFBFBF"/>
<path d="M13 23.7149V22.3577C13 17.111 17.2533 12.8577 22.5 12.8577C27.7467 12.8577 32 17.111 32 22.3577V23.7149" stroke="#BFBFBF" stroke-width="2.03571" stroke-linecap="round" stroke-linejoin="round"/>
<path d="M22.5005 12.8571C25.4985 12.8571 27.929 10.4266 27.929 7.42857C27.929 4.43045 25.4985 2 22.5005 2C19.5024 2 17.0719 4.43045 17.0719 7.42857C17.0719 10.4266 19.5024 12.8571 22.5005 12.8571Z" stroke="#BFBFBF" stroke-width="2.03571" stroke-linecap="round" stroke-linejoin="round"/>
</svg>
