<svg width="11" height="9" viewBox="0 0 11 9" fill="none" xmlns="http://www.w3.org/2000/svg">
<path d="M5.04202 9C4.95211 9 4.8606 8.98374 4.76748 8.95123C4.67435 8.91872 4.59247 8.8667 4.52183 8.79517L3.85714 8.18067C2.81513 7.21429 1.91176 6.29202 1.14706 5.41387C0.382353 4.53571 0 3.61765 0 2.65966C0 1.90206 0.254202 1.26938 0.762605 0.761634C1.27101 0.253878 1.89916 0 2.64706 0C3.07563 0 3.5 0.102941 3.92017 0.308824C4.34034 0.514706 4.71429 0.852941 5.04202 1.32353C5.41176 0.852941 5.79412 0.514706 6.18908 0.308824C6.58403 0.102941 7 0 7.43697 0C8.18487 0 8.81302 0.253878 9.32143 0.761634C9.82983 1.26938 10.084 1.90206 10.084 2.65966C10.084 3.61765 9.70168 4.53571 8.93697 5.41387C8.17227 6.29202 7.26891 7.21429 6.22689 8.18067L5.55882 8.79832C5.4895 8.86875 5.40914 8.91997 5.31775 8.95197C5.22637 8.98399 5.13445 9 5.04202 9ZM4.71429 2.15546C4.48739 1.7437 4.18908 1.40756 3.81933 1.14706C3.44958 0.886555 3.05882 0.756303 2.64706 0.756303C2.09244 0.756303 1.63866 0.934874 1.28571 1.29202C0.932773 1.64916 0.756302 2.10684 0.756302 2.66507C0.756302 3.14886 0.919668 3.65821 1.2464 4.19312C1.57314 4.72803 1.96389 5.24693 2.41867 5.74984C2.87345 6.25275 3.34454 6.72059 3.83193 7.15336C4.31933 7.58613 4.72269 7.94958 5.04202 8.2437C5.36134 7.95798 5.76471 7.59664 6.2521 7.15966C6.7395 6.72269 7.21008 6.25 7.66387 5.7416C8.11765 5.23319 8.5084 4.71138 8.83613 4.17615C9.16387 3.64092 9.32773 3.13542 9.32773 2.65966C9.32773 2.10504 9.14916 1.64916 8.79202 1.29202C8.43487 0.934874 7.98319 0.756303 7.43697 0.756303C7.01681 0.756303 6.62395 0.884454 6.2584 1.14076C5.89286 1.39706 5.58823 1.73529 5.34454 2.15546C5.30252 2.22269 5.2563 2.27101 5.20588 2.30042C5.15546 2.32983 5.09664 2.34454 5.02941 2.34454C4.96218 2.34454 4.90126 2.32983 4.84664 2.30042C4.79202 2.27101 4.7479 2.22269 4.71429 2.15546Z" fill="#7B7878"/>
</svg>
