<svg width="297" height="297" viewBox="0 0 297 297" fill="none" xmlns="http://www.w3.org/2000/svg">
<rect width="297" height="297" fill="#A7A5A5"/>
<path d="M64 132.47H75.6561V161.028H89.9564V170.191H64V132.47Z" fill="#D2D2D2"/>
<path d="M100.025 168.976C97.2407 167.627 95.0929 165.76 93.5765 163.369C92.0602 160.979 91.3047 158.227 91.3047 155.113C91.3047 151.999 92.0602 149.247 93.5765 146.856C95.0929 144.466 97.2407 142.599 100.025 141.25C102.81 139.901 106.047 139.226 109.744 139.226C113.44 139.226 116.678 139.901 119.463 141.25C122.247 142.599 124.395 144.471 125.911 146.856C127.428 149.247 128.183 151.999 128.183 155.113C128.183 158.227 127.422 160.979 125.911 163.369C124.395 165.76 122.247 167.627 119.463 168.976C116.678 170.325 113.44 171 109.744 171C106.047 171 102.804 170.325 100.025 168.976ZM115.011 160.504C116.317 159.193 116.975 157.401 116.975 155.113C116.975 152.825 116.322 151.033 115.011 149.722C113.705 148.411 111.946 147.758 109.744 147.758C107.542 147.758 105.788 148.411 104.477 149.722C103.171 151.028 102.513 152.825 102.513 155.113C102.513 157.401 103.166 159.193 104.477 160.504C105.783 161.81 107.542 162.468 109.744 162.468C111.946 162.468 113.699 161.815 115.011 160.504Z" fill="#D2D2D2"/>
<path d="M135.166 166.888C131.966 164.147 130.369 160.245 130.369 155.173C130.369 150.1 131.977 146.182 135.199 143.398C138.415 140.613 142.77 139.221 148.253 139.221C150.703 139.221 152.996 139.458 155.138 139.939C157.275 140.419 159.051 141.093 160.464 141.962V150.499C157.928 148.67 154.588 147.758 150.433 147.758C147.772 147.758 145.646 148.373 144.049 149.598C142.452 150.823 141.647 152.685 141.647 155.173C141.647 157.66 142.435 159.565 144.016 160.747C145.592 161.929 147.713 162.522 150.373 162.522C154.399 162.522 157.89 161.567 160.842 159.657V168.129C157.685 170.039 153.471 170.995 148.193 170.995C142.916 170.995 138.372 169.624 135.172 166.883L135.166 166.888Z" fill="#D2D2D2"/>
<path d="M167.096 168.291C164.792 166.483 163.637 163.963 163.637 160.72C163.637 157.477 164.748 154.768 166.972 152.966C169.195 151.158 172.379 150.257 176.534 150.257C178.153 150.257 179.772 150.435 181.396 150.785C183.015 151.142 184.407 151.606 185.573 152.189V151.568C185.573 148.368 182.956 146.771 177.721 146.771C174.068 146.771 170.722 147.478 167.689 148.891V141.353C169.017 140.732 170.765 140.219 172.924 139.826C175.082 139.432 177.327 139.232 179.653 139.232C185.217 139.232 189.426 140.344 192.27 142.567C195.114 144.79 196.538 147.893 196.538 151.881V170.072H186.258V167.52C185.136 168.599 183.722 169.451 182.022 170.072C180.317 170.693 178.369 171.006 176.167 171.006C172.427 171.006 169.405 170.104 167.101 168.297L167.096 168.291ZM183.015 163.494C184.137 162.976 184.985 162.301 185.567 161.47V158.853C183.781 157.65 181.747 157.045 179.459 157.045C178.002 157.045 176.885 157.358 176.097 157.979C175.309 158.599 174.915 159.517 174.915 160.72C174.915 161.843 175.298 162.711 176.07 163.337C176.836 163.958 177.948 164.271 179.405 164.271C180.695 164.271 181.898 164.012 183.02 163.494H183.015Z" fill="#D2D2D2"/>
<path d="M201.066 130.312L213.268 130.269V170.191H201.066V130.312Z" fill="#D2D2D2"/>
<circle cx="226.445" cy="131.147" r="6.14656" fill="#D2D2D2"/>
</svg>
