<svg width="27" height="29" viewBox="0 0 27 29" fill="none" xmlns="http://www.w3.org/2000/svg">
<path d="M6.70312 20.9375C6.50391 20.9375 6.33691 20.8697 6.20215 20.7342C6.06738 20.5986 6 20.4306 6 20.2303C6 20.0299 6.06738 19.8633 6.20215 19.7305C6.33691 19.5977 6.50391 19.5312 6.70312 19.5312H7.96875V12.3594C7.96875 11.0781 8.35547 9.91797 9.12891 8.87891C9.90234 7.83984 10.9219 7.1875 12.1875 6.92188V6.24219C12.1875 5.88281 12.3146 5.58594 12.5687 5.35156C12.8228 5.11719 13.1314 5 13.4945 5C13.8575 5 14.168 5.11719 14.4258 5.35156C14.6836 5.58594 14.8125 5.88281 14.8125 6.24219V6.92188C16.0781 7.1875 17.1016 7.83984 17.8828 8.87891C18.6641 9.91797 19.0547 11.0781 19.0547 12.3594V19.5312H20.2969C20.4961 19.5312 20.6631 19.599 20.7979 19.7346C20.9326 19.8701 21 20.0381 21 20.2385C21 20.4389 20.9326 20.6055 20.7979 20.7383C20.6631 20.8711 20.4961 20.9375 20.2969 20.9375H6.70312ZM13.5 23.75C13 23.75 12.5625 23.5664 12.1875 23.1992C11.8125 22.832 11.625 22.3906 11.625 21.875H15.375C15.375 22.3906 15.1914 22.832 14.8242 23.1992C14.457 23.5664 14.0156 23.75 13.5 23.75ZM9.375 19.5312H17.6484V12.3594C17.6484 11.1875 17.2539 10.1992 16.4648 9.39453C15.6758 8.58984 14.6992 8.1875 13.5352 8.1875C12.3711 8.1875 11.3867 8.58984 10.582 9.39453C9.77734 10.1992 9.375 11.1875 9.375 12.3594V19.5312Z" fill="#231E1E"/>
</svg>
