<svg width="37" height="45" viewBox="0 0 37 45" fill="none" xmlns="http://www.w3.org/2000/svg">
<path d="M29.4174 22.4H23.3304C23.0348 22.4 22.787 22.2994 22.587 22.0983C22.387 21.8971 22.287 21.6478 22.287 21.3504C22.287 21.053 22.387 20.8058 22.587 20.6087C22.787 20.4116 23.0348 20.313 23.3304 20.313H29.4174L27.6087 18.4696C27.4232 18.2609 27.3246 18.0174 27.313 17.7391C27.3014 17.4609 27.4 17.2174 27.6087 17.0087C27.8174 16.8 28.0609 16.6957 28.3391 16.6957C28.6174 16.6957 28.8609 16.8 29.0696 17.0087L32.687 20.6261C32.8957 20.8348 33 21.0783 33 21.3565C33 21.6348 32.8957 21.8783 32.687 22.087L29.0696 25.7043C28.8609 25.913 28.6174 26.0174 28.3391 26.0174C28.0609 26.0174 27.8174 25.913 27.6087 25.7043C27.4 25.4957 27.3014 25.2522 27.313 24.9739C27.3246 24.6957 27.4232 24.4522 27.6087 24.2435L29.4174 22.4ZM16.1304 17.7391C17.3222 17.7391 18.397 17.4609 19.3547 16.9043C20.3125 16.3478 21.0812 15.6058 21.6609 14.6783C20.8725 14.0754 20.012 13.6232 19.0795 13.3217C18.147 13.0203 17.1614 12.8696 16.123 12.8696C15.0845 12.8696 14.1014 13.0203 13.1739 13.3217C12.2464 13.6232 11.3884 14.0754 10.6 14.6783C11.1797 15.6058 11.9484 16.3478 12.9061 16.9043C13.8638 17.4609 14.9386 17.7391 16.1304 17.7391ZM16.1335 10.7826C16.8039 10.7826 17.3768 10.5439 17.8522 10.0665C18.3275 9.58907 18.5652 9.01515 18.5652 8.34473C18.5652 7.67433 18.3265 7.10145 17.8491 6.62609C17.3717 6.15072 16.7978 5.91304 16.1273 5.91304C15.4569 5.91304 14.8841 6.15176 14.4087 6.62918C13.9333 7.10659 13.6957 7.6805 13.6957 8.35092C13.6957 9.02132 13.9344 9.5942 14.4118 10.0696C14.8892 10.5449 15.4631 10.7826 16.1335 10.7826ZM16.1217 27.1304C15.8725 27.1304 15.6261 27.0899 15.3826 27.0087C15.1391 26.9275 14.9246 26.7942 14.7391 26.6087C13.7652 25.7275 12.7101 24.713 11.5739 23.5652C10.4377 22.4174 9.38261 21.1826 8.4087 19.8609C7.43478 18.5391 6.62319 17.1594 5.97391 15.7217C5.32464 14.2841 5 12.8464 5 11.4087C5 7.93043 6.11884 5.15942 8.35652 3.09565C10.5942 1.03188 13.1855 0 16.1304 0C19.0754 0 21.6667 1.03188 23.9043 3.09565C26.142 5.15942 27.2609 7.93043 27.2609 11.4087C27.2609 11.7712 27.2454 12.1437 27.2145 12.5263C27.1836 12.9089 27.1063 13.3016 26.9826 13.7043H24.7913C24.9072 13.3101 25 12.9203 25.0696 12.5348C25.1391 12.1493 25.1739 11.7739 25.1739 11.4087C25.1739 8.67733 24.301 6.44087 22.5551 4.6993C20.8092 2.95774 18.6676 2.08696 16.1304 2.08696C13.5932 2.08696 11.4517 2.95774 9.70581 4.6993C7.95991 6.44087 7.08696 8.67733 7.08696 11.4087C7.08696 13.1478 7.84058 15.1594 9.34783 17.4435C10.8551 19.7275 13.1159 22.2725 16.1304 25.0783C16.6638 24.6145 17.1565 24.1507 17.6087 23.687C18.0609 23.2232 18.5072 22.771 18.9478 22.3304L19.1886 22.5552L19.7104 23.0422C19.8977 23.217 20.0725 23.3797 20.2348 23.5304L20.4783 23.7565C19.9913 24.2667 19.4928 24.771 18.9826 25.2696C18.4725 25.7681 17.9855 26.2145 17.5217 26.6087C17.3362 26.7942 17.1188 26.9275 16.8696 27.0087C16.6203 27.0899 16.371 27.1304 16.1217 27.1304Z" fill="#BFBFBF"/>
<path d="M8.3877 41.9453V42.8438H0.321289V41.9453H3.79785V40.5098H1.27832V37.6191H6.35645V36.5254H1.25879V35.6465H7.43066V38.4785H2.3623V39.6211H7.63574V40.5098H4.87207V41.9453H8.3877ZM13.5732 35.4414C13.5635 37.7656 12.3574 39.1914 9.5498 39.875L9.15918 39.0449C10.4775 38.7422 11.3223 38.2783 11.8252 37.6973L9.33496 37.8828L9.16895 37.0527L12.2695 36.9355C12.3428 36.7305 12.3916 36.5156 12.416 36.291H9.61816V35.4414H13.5732ZM10.5459 40.7441V39.8945H16.3564V42.1895H11.6201V42.9023H16.5908V43.7617H10.5557V41.3984H15.2822V40.7441H10.5459ZM13.5928 37.9023V37.0137H15.2725V35.041H16.3564V39.543H15.2725V37.9023H13.5928ZM25.0186 35.9004V36.7891H24.1689V40.7588C24.5693 40.7295 24.9648 40.6953 25.3408 40.6465L25.3896 41.4277C23.5684 41.7451 21.5176 41.7793 19.9893 41.7793L19.8623 40.8906C20.1943 40.8906 20.5508 40.8857 20.9268 40.8857V36.7891H20.0869V35.9004H25.0186ZM21.9814 40.8662C22.3574 40.8564 22.7383 40.8418 23.124 40.8223V36.7891H21.9814V40.8662ZM25.8096 43.8691V35.041H26.8936V38.459H28.251V39.3477H26.8936V43.8691H25.8096ZM36.0146 35.0508V41.5742H34.9307V39.6504H32.8018V38.7617H34.9307V37.668H32.9189C32.2939 39.0254 30.9951 40.041 29.208 40.5879L28.749 39.7383C30.6924 39.1133 31.9473 37.9951 32.1475 36.5938H29.208V35.7246H33.3389C33.3389 36.0957 33.2949 36.4521 33.2217 36.7891H34.9307V35.0508H36.0146ZM30.2627 43.6934V40.9297H31.3662V42.8145H36.2393V43.6934H30.2627Z" fill="#BFBFBF"/>
</svg>
