<svg width="85" height="23" viewBox="0 0 85 23" fill="none" xmlns="http://www.w3.org/2000/svg">
<g clip-path="url(#clip0_215_7907)">
<path d="M0 3.73535H5.82804V18.014H12.9782V22.5955H0V3.73535Z" fill="#231E1E"/>
<path d="M18.0126 21.9883C16.6203 21.3137 15.5465 20.3802 14.7883 19.1849C14.0301 17.9896 13.6523 16.6135 13.6523 15.0567C13.6523 13.4998 14.0301 12.1238 14.7883 10.9285C15.5465 9.7332 16.6203 8.79964 18.0126 8.12509C19.4048 7.45055 21.0237 7.11328 22.872 7.11328C24.7202 7.11328 26.3391 7.45055 27.7314 8.12509C29.1236 8.79964 30.1975 9.7359 30.9557 10.9285C31.7139 12.1238 32.0916 13.4998 32.0916 15.0567C32.0916 16.6135 31.7112 17.9896 30.9557 19.1849C30.1975 20.3802 29.1236 21.3137 27.7314 21.9883C26.3391 22.6628 24.7202 23.0001 22.872 23.0001C21.0237 23.0001 19.4021 22.6628 18.0126 21.9883ZM25.5054 17.7522C26.1583 17.0965 26.4875 16.2007 26.4875 15.0567C26.4875 13.9127 26.161 13.0169 25.5054 12.3612C24.8524 11.7056 23.9728 11.3791 22.872 11.3791C21.7711 11.3791 20.8942 11.7056 20.2386 12.3612C19.5856 13.0142 19.2564 13.9127 19.2564 15.0567C19.2564 16.2007 19.5829 17.0965 20.2386 17.7522C20.8915 18.4051 21.7711 18.7343 22.872 18.7343C23.9728 18.7343 24.8497 18.4078 25.5054 17.7522Z" fill="#231E1E"/>
<path d="M35.5832 20.9438C33.9832 19.5732 33.1846 17.6224 33.1846 15.0861C33.1846 12.5499 33.9886 10.591 35.5994 9.19873C37.2075 7.80648 39.385 7.11035 42.1263 7.11035C43.3513 7.11035 44.498 7.22907 45.5692 7.46921C46.6376 7.70934 47.5253 8.04662 48.2322 8.48102V12.7495C46.9641 11.8348 45.2939 11.3788 43.2164 11.3788C41.8862 11.3788 40.8231 11.6864 40.0244 12.2989C39.2258 12.9114 38.8237 13.8423 38.8237 15.0861C38.8237 16.33 39.2177 17.2824 40.0082 17.8733C40.7961 18.4642 41.8565 18.761 43.1867 18.761C45.1995 18.761 46.9452 18.2835 48.4211 17.3283V21.5644C46.8427 22.5196 44.7354 22.9972 42.0966 22.9972C39.4578 22.9972 37.186 22.3118 35.5859 20.9412L35.5832 20.9438Z" fill="#231E1E"/>
<path d="M51.5489 21.6453C50.3967 20.7415 49.8193 19.4814 49.8193 17.8598C49.8193 16.2382 50.3752 14.8837 51.4868 13.9826C52.5984 13.0787 54.1904 12.6281 56.268 12.6281C57.0774 12.6281 57.8869 12.7171 58.699 12.8925C59.5085 13.0706 60.2046 13.3026 60.7874 13.594V13.2837C60.7874 11.6837 59.4788 10.8851 56.8616 10.8851C55.0349 10.8851 53.362 11.2385 51.8457 11.9454V8.1761C52.5094 7.86581 53.3836 7.60949 54.4629 7.41252C55.5421 7.21555 56.6646 7.11572 57.8275 7.11572C60.6093 7.11572 62.7139 7.67154 64.1358 8.78319C65.5577 9.89483 66.2701 11.4463 66.2701 13.4402V22.5357H61.13V21.2595C60.5688 21.7991 59.8619 22.2255 59.012 22.5357C58.1594 22.846 57.1853 23.0025 56.0845 23.0025C54.2146 23.0025 52.7037 22.5519 51.5516 21.648L51.5489 21.6453ZM59.5085 19.2467C60.0697 18.9877 60.4933 18.6504 60.7847 18.2349V16.9263C59.8916 16.3246 58.8744 16.0224 57.7304 16.0224C57.0019 16.0224 56.4433 16.1789 56.0494 16.4892C55.6555 16.7994 55.4585 17.2581 55.4585 17.8598C55.4585 18.421 55.6501 18.8554 56.0359 19.1684C56.419 19.4787 56.9749 19.6352 57.7034 19.6352C58.3482 19.6352 58.9499 19.5057 59.5111 19.2467H59.5085Z" fill="#231E1E"/>
<path d="M68.5332 2.65586L74.6338 2.63428V22.5953H68.5332V2.65586Z" fill="#231E1E"/>
</g>
<circle cx="81.2227" cy="3.07328" r="3.07328" fill="#FF552B"/>
<defs>
<clipPath id="clip0_215_7907">
<rect width="74.6313" height="20.3658" fill="white" transform="translate(0 2.63428)"/>
</clipPath>
</defs>
</svg>
