
<svg width="22" height="18" viewBox="0 0 22 18" fill="none" xmlns="http://www.w3.org/2000/svg">
<path d="M10.9725 9.955L7.92 10.8075L6.6825 9.7625C6.66417 9.74417 6.52667 9.72583 6.27 9.7075L6.16 9.735C6.03167 9.77167 5.94458 9.85417 5.89875 9.9825C5.85292 10.1108 5.8575 10.23 5.9125 10.34L7.205 12.76C7.24167 12.8517 7.31042 12.9204 7.41125 12.9662C7.51208 13.0121 7.60833 13.0167 7.7 12.98L17.49 10.285C17.8017 10.1933 18.0308 10.0467 18.1775 9.845C18.3242 9.64333 18.3517 9.38667 18.26 9.075C18.1683 8.76333 18.0033 8.54792 17.765 8.42875C17.5267 8.30958 17.2627 8.28789 16.9731 8.36366L14.135 9.1025L9.85124 4.93389C9.75541 4.83463 9.64945 4.76667 9.53334 4.73C9.41722 4.69333 9.3011 4.69333 9.185 4.73L9.05473 4.7575C8.81158 4.8125 8.64875 4.95 8.56625 5.17C8.48375 5.39 8.4975 5.60083 8.6075 5.8025L10.9725 9.955ZM1.65 17.6C1.19625 17.6 0.807812 17.4384 0.484687 17.1153C0.161562 16.7922 0 16.4037 0 15.95V12.32C0 12.1333 0.0504167 11.972 0.15125 11.8362C0.252083 11.7004 0.385 11.605 0.55 11.55C1.11833 11.3483 1.56292 10.9862 1.88375 10.4637C2.20458 9.94125 2.365 9.39125 2.365 8.81375C2.365 8.23625 2.20458 7.68167 1.88375 7.15C1.56292 6.61833 1.11833 6.25167 0.55 6.05C0.385 5.995 0.252083 5.8996 0.15125 5.76381C0.0504167 5.62799 0 5.46672 0 5.28V1.65C0 1.19625 0.161562 0.807812 0.484687 0.484687C0.807812 0.161562 1.19625 0 1.65 0H20.35C20.8037 0 21.1922 0.161562 21.5153 0.484687C21.8384 0.807812 22 1.19625 22 1.65V15.95C22 16.4037 21.8384 16.7922 21.5153 17.1153C21.1922 17.4384 20.8037 17.6 20.35 17.6H1.65ZM1.65 15.95H20.35V1.65H1.65V4.6475C2.365 5.12417 2.93792 5.72 3.36875 6.435C3.79958 7.15 4.015 7.93833 4.015 8.8C4.015 9.66167 3.79958 10.45 3.36875 11.165C2.93792 11.88 2.365 12.4758 1.65 12.9525V15.95Z" fill="#231E1E"/>

</svg>
